<svg width="401" height="434" viewBox="0 0 401 434" xmlns="http://www.w3.org/2000/svg"><title>noun_154481_cc</title><path d="M398.104 338.734L344.08 284.71v-20.737l33.833 33.833c1.09 1.092 3.274 2.183 4.91 2.183 1.638 0 3.275-.55 4.912-2.19a6.917 6.917 0 0 0 0-9.82l-43.11-43.11v-20.74l22.92 22.92c1.09 1.09 3.274 2.18 4.91 2.18 1.638 0 3.275-.55 4.912-2.187a6.917 6.917 0 0 0 0-9.82L345.17 205.03v-21.28l12.01 12.007c1.09 1.09 3.277 2.182 4.91 2.182s3.278-.55 4.91-2.19a6.917 6.917 0 0 0 0-9.82l-25.1-23.466c-.543-.544-1.64-1.09-2.18-1.635-.546-.545-1.637-.545-2.73-.545-1.09 0-1.636 0-2.727.544-1.092.544-1.637 1.09-2.183 1.636l-23.466 23.467a6.917 6.917 0 0 0 0 9.823c1.09 1.095 3.275 2.186 4.91 2.186s3.276-.545 4.914-2.182l12.005-12v20.735l-32.2 32.194a6.917 6.917 0 0 0 0 9.82c1.094 1.096 3.277 2.187 4.914 2.187s3.274-.545 4.91-2.182l22.92-22.92v20.738l-38.198 38.2-85.13-84.04V153.2l61.66 61.664c1.09 1.09 3.272 2.183 4.91 2.183s3.273-.546 4.91-2.183a6.917 6.917 0 0 0 0-9.823l-71.486-71.48v-45.3l44.2 44.2c1.092 1.1 3.274 2.19 4.912 2.19 1.635 0 3.272-.545 4.91-2.182a6.917 6.917 0 0 0 0-9.82l-54.025-53.48v-45.3l26.74 26.74c1.09 1.09 3.273 2.183 4.91 2.183s3.274-.546 4.91-2.183a6.917 6.917 0 0 0 0-9.822l-38.2-38.2c-.543-.545-1.635-1.09-2.18-1.636C203.29.4 202.2.4 201.106.4c-1.09 0-1.637 0-2.73.546-1.09.545-1.635 1.09-2.18 1.637l-38.2 38.2a6.917 6.917 0 0 0 0 9.82c1.09 1.093 3.274 2.184 4.91 2.184s3.275-.546 4.91-2.183l26.74-26.74V69.16l-54.023 54.024a6.917 6.917 0 0 0 0 9.823c1.092 1.09 3.275 2.183 4.912 2.183s3.274-.546 4.91-2.183l44.203-44.202v45.293l-71.487 70.94a6.917 6.917 0 0 0 0 9.824c1.098 1.09 3.28 2.183 4.918 2.183s3.275-.546 4.912-2.183l61.663-61.664v45.293l-85.675 85.13-39.29-39.29v-20.74l22.92 22.92c1.09 1.1 3.273 2.19 4.91 2.19s3.274-.54 4.91-2.18a6.917 6.917 0 0 0 0-9.82L70.14 204.49v-20.737l12.006 12.006c1.09 1.09 3.274 2.18 4.91 2.18 1.638 0 3.275-.55 4.912-2.18a6.917 6.917 0 0 0 0-9.82L68.5 162.47c-.545-.546-1.636-1.092-2.182-1.637-.545-.546-1.637-.546-2.728-.546-1.092 0-1.637 0-2.73.544-1.09.55-1.636 1.09-2.182 1.64l-23.465 23.47a6.917 6.917 0 0 0 0 9.825c1.092 1.093 3.275 2.184 4.912 2.184s3.274-.545 4.91-2.18l12.005-12.01v20.74l-32.19 32.2a6.917 6.917 0 0 0 0 9.823c1.09 1.093 3.28 2.184 4.91 2.184 1.64 0 3.28-.545 4.918-2.182l22.92-22.92v20.738l-44.75 43.11a6.917 6.917 0 0 0 0 9.823c1.09 1.09 3.276 2.183 4.91 2.183 1.64 0 3.277-.55 4.914-2.19L56.5 263.43v20.738l-54.03 54.02a6.917 6.917 0 0 0 0 9.822c1.093 1.094 3.276 2.186 4.913 2.186 1.637 0 3.274-.546 4.91-2.183l44.203-44.2V426.05c0 3.82 3.274 7.093 7.094 7.093 3.82 0 7.094-3.274 7.094-7.094V303.81l44.202 44.2c1.09 1.092 3.274 2.184 4.91 2.184 1.638 0 3.275-.546 4.912-2.183a6.917 6.917 0 0 0 0-9.82l-54.024-54.02v-20.74l33.833 33.84c1.092 1.09 3.274 2.184 4.912 2.184.54 0 1.09 0 1.63-.546 1.63 0 3.27-.542 4.91-2.18l79.12-79.125v207.9c0 3.82 3.276 7.095 7.096 7.095s7.094-3.274 7.094-7.094v-207.37l77.49 77.49c.546.546.546 1.09 1.09 1.638 1.093 1.1 3.276 2.19 4.913 2.19s3.273-.542 4.91-2.18h.546v-.544l33.285-33.29v20.738l-54.02 54.023a6.917 6.917 0 0 0 0 9.823c1.09 1.093 3.272 2.185 4.91 2.185 1.64 0 3.274-.546 4.91-2.183l44.2-44.2v122.23c0 3.82 3.277 7.094 7.096 7.094 3.82 0 7.097-3.275 7.097-7.095V303.81l44.2 44.2c1.092 1.092 3.274 2.184 4.912 2.184 1.635 0 3.272-.546 4.91-2.183 1.09-2.18 1.09-6.54-1.638-9.27z" fill-rule="evenodd"/></svg>